<svg width="60" height="60" viewBox="0 0 60 60" fill="none" xmlns="http://www.w3.org/2000/svg">
<g clip-path="url(#clip0_117_1317)">
<path d="M56.786 21.2612C55.9943 18.8096 56.3318 15.1296 54.274 12.2881C52.2 9.42431 48.5929 8.61033 46.556 7.12064C44.5406 5.64666 42.6656 2.43912 39.2755 1.33287C35.981 0.257791 32.6121 1.71666 30 1.71666C27.3882 1.71666 24.0196 0.257439 20.7245 1.33275C17.335 2.43877 15.4584 5.64701 13.4443 7.12029C11.4097 8.60822 7.79988 9.42443 5.72625 12.2878C3.6702 15.1269 4.0043 18.8154 3.21398 21.2611C2.46187 23.5888 0 26.3824 0 30.0002C0 33.6203 2.45906 36.4031 3.21398 38.7392C4.0057 41.1908 3.6682 44.8708 5.72602 47.7123C7.79988 50.5762 11.4069 51.3901 13.444 52.8799C15.459 54.3536 17.3344 57.5614 20.7245 58.6676C24.0168 59.7419 27.3909 58.2838 30 58.2838C32.6054 58.2838 35.9875 59.7404 39.2755 58.6677C42.6652 57.5617 44.5405 54.3541 46.5557 52.8801C48.5903 51.3922 52.2001 50.576 54.2738 47.7126C56.3299 44.8734 55.9956 41.1853 56.786 38.7394C57.5381 36.4115 60 33.6179 60 30.0002C60 26.3804 57.5415 23.5984 56.786 21.2612ZM52.3257 37.2979C51.4029 40.1544 51.6446 43.3512 50.4775 44.9629C49.2946 46.5962 46.1869 47.3422 43.7889 49.0963C41.4171 50.8308 39.7548 53.5803 37.8214 54.2111C35.9924 54.8081 33.0116 53.596 30.0001 53.596C26.9666 53.596 24.0165 54.8107 22.1787 54.2111C20.2455 53.5803 18.5856 50.8326 16.2113 49.0962C13.8274 47.3528 10.702 46.5914 9.52254 44.9627C8.3591 43.3563 8.59172 40.1374 7.67449 37.2981C6.77543 34.5162 4.6875 32.1074 4.6875 30.0002C4.6875 27.891 6.77355 25.4905 7.67426 22.7025C8.59711 19.8461 8.35535 16.6492 9.52254 15.0375C10.7047 13.4053 13.8148 12.6568 16.2113 10.9042C18.5905 9.16404 20.2424 6.42103 22.1784 5.78928C24.006 5.19303 26.9965 6.40439 29.9999 6.40439C33.0389 6.40439 35.9816 5.18892 37.8213 5.78928C39.7542 6.41998 41.4156 9.16873 43.7889 10.9043C46.1723 12.6477 49.298 13.409 50.4775 15.0376C51.6411 16.6444 51.4072 19.86 52.3255 22.7022V22.7024C53.2246 25.4843 55.3125 27.8931 55.3125 30.0002C55.3125 32.1095 53.2264 34.5099 52.3257 37.2979ZM40.798 22.4774C41.7134 23.3927 41.7134 24.8767 40.798 25.7919L29.0668 37.5231C28.1515 38.4384 26.6674 38.4383 25.7522 37.5231L19.2021 30.973C18.2868 30.0576 18.2866 28.5737 19.202 27.6585C20.1173 26.7432 21.6015 26.7431 22.5165 27.6585L27.4095 32.5513L37.4832 22.4775C38.3986 21.5621 39.8827 21.5621 40.798 22.4774Z" fill="#242424"/>
</g>
<defs>
<clipPath id="clip0_117_1317">
<rect width="60" height="60" fill="white"/>
</clipPath>
</defs>
</svg>
