<svg width="60" height="60" viewBox="0 0 60 60" fill="none" xmlns="http://www.w3.org/2000/svg">
<g clip-path="url(#clip0_117_1325)">
<path d="M55.3479 31.102V3.7797C55.3479 2.80495 54.5577 2.01471 53.5829 2.01471H6.29511C5.32036 2.01471 4.53012 2.80495 4.53012 3.7797V33.2801C3.67869 33.4041 2.84632 33.7346 2.10997 34.2813C-0.211348 35.9273 -0.760378 39.611 1.18405 41.8828L9.13392 51.5204C14.0549 57.2798 19.2825 57.9855 27.0539 57.9855C33.7228 57.9855 36.7043 58.0149 42.5165 56.6906L48.176 55.3369C49.0936 56.6184 50.5505 57.4486 52.1883 57.4486H54.9762C57.7463 57.4486 60 55.0744 60 52.1562V36.3785C60.0001 33.592 57.9449 31.3032 55.3479 31.102ZM47.4147 34.7327L45.063 33.5382C41.1964 31.5865 36.7259 31.5143 32.7982 33.3403C31.7266 33.7618 29.3894 35.1759 28.1771 35.1286H20.0167C17.3099 35.1286 15.1077 37.3307 15.1077 40.0376V41.3248C15.0925 41.3088 15.0766 41.2936 15.0617 41.2774L9.23429 34.952C8.88164 34.5692 8.48546 34.249 8.06022 33.992V16.481H22.5041V22.951C22.5041 23.9258 23.2943 24.716 24.2691 24.716H35.4063C36.381 24.716 37.1712 23.9258 37.1712 22.951V16.481H51.8181V31.1019C49.7559 31.2612 48.0363 32.7365 47.4147 34.7327ZM26.0339 16.481H33.6412V21.186H26.0339V16.481ZM51.818 12.9511H37.1712V5.54469H51.8181V12.9511H51.818ZM33.6413 5.54469V12.9512H26.034V5.54469H33.6413ZM22.504 5.54469V12.9512H8.0601V5.54469H22.504ZM41.6973 53.2568C36.3282 54.4866 33.0946 54.4368 27.1172 54.4368C19.8219 54.4368 16.297 54.3189 11.8572 49.2741L3.90731 39.6364C2.5245 37.8358 5.02914 35.7101 6.63811 37.3436L12.4655 43.6691C14.0056 45.2941 15.9437 46.1885 18.3325 46.2411H34.4889C35.4637 46.2411 36.2539 45.4509 36.2539 44.4761C36.2539 43.5014 35.4637 42.7111 34.4889 42.7111H18.6376V40.0374C18.6376 39.2771 19.2561 38.6584 20.0166 38.6584H28.177C30.0154 38.79 32.6689 37.255 34.2863 36.5411C37.228 35.1733 40.5763 35.2275 43.4684 36.6872L47.1647 38.5647V51.949L41.6973 53.2568ZM56.4701 52.1561C56.4701 53.1279 55.8 53.9185 54.9763 53.9185H52.1884C51.3647 53.9185 50.6947 53.1279 50.6947 52.1561V36.3785C50.6947 35.4067 51.3648 34.616 52.1884 34.616H54.9763C55.8 34.616 56.4701 35.4065 56.4701 36.3785V52.1561Z" fill="#242424"/>
</g>
<defs>
<clipPath id="clip0_117_1325">
<rect width="60" height="60" fill="white"/>
</clipPath>
</defs>
</svg>
